<svg width="22" height="25" viewBox="0 0 22 25" fill="none" xmlns="http://www.w3.org/2000/svg">
<path fill-rule="evenodd" clip-rule="evenodd" d="M6 0H12C12.5523 0 13 0.621817 13 1.38889V14.8148L9 11.5741L5 14.8148V1.38889C5 0.621817 5.44771 0 6 0ZM9 9.96615L12 12.3967V1.56238C12 1.46652 11.944 1.38889 11.875 1.38889H6.125C6.09185 1.38889 6.06005 1.40718 6.03661 1.43974C6.01317 1.4723 6 1.51646 6 1.5625V12.3967L9 9.96615Z" fill="white"/>
<path d="M0 0.925926V25H22V0.925926H14V2.77778H20V23.1481H2V2.77778H4V0.925926H0Z" fill="white"/>
</svg>
