<svg width="21" height="24" viewBox="0 0 21 24" fill="none" xmlns="http://www.w3.org/2000/svg">
<path d="M14.8069 4.74522C14.8069 5.40039 15.3043 5.93153 15.918 5.93153C16.5316 5.93153 17.0291 5.40039 17.0291 4.74522C17.0291 4.09005 16.5316 3.55892 15.918 3.55892C15.3043 3.55892 14.8069 4.09005 14.8069 4.74522ZM15.918 9.49044C15.3043 9.49044 14.8069 8.95931 14.8069 8.30414C14.8069 7.64896 15.3043 7.11783 15.918 7.11783C16.5316 7.11783 17.0291 7.64896 17.0291 8.30414C17.0291 8.95931 16.5316 9.49044 15.918 9.49044ZM14.8069 11.8631C14.8069 12.5182 15.3043 13.0494 15.918 13.0494C16.5316 13.0494 17.0291 12.5182 17.0291 11.8631C17.0291 11.2079 16.5316 10.6767 15.918 10.6767C15.3043 10.6767 14.8069 11.2079 14.8069 11.8631ZM14.8069 15.422C14.8069 16.0772 15.3043 16.6083 15.918 16.6083C16.5316 16.6083 17.0291 16.0772 17.0291 15.422C17.0291 14.7668 16.5316 14.2357 15.918 14.2357C15.3043 14.2357 14.8069 14.7668 14.8069 15.422ZM15.918 20.1672C15.3043 20.1672 14.8069 19.6361 14.8069 18.9809C14.8069 18.3257 15.3043 17.7946 15.918 17.7946C16.5316 17.7946 17.0291 18.3257 17.0291 18.9809C17.0291 19.6361 16.5316 20.1672 15.918 20.1672ZM8.1402 16.6083C7.52654 16.6083 7.02909 16.0772 7.02909 15.422C7.02909 14.7668 7.52654 14.2357 8.1402 14.2357C8.75387 14.2357 9.25132 14.7668 9.25132 15.422C9.25132 16.0772 8.75387 16.6083 8.1402 16.6083ZM4.80687 16.6083C4.1932 16.6083 3.69576 16.0772 3.69576 15.422C3.69576 14.7668 4.1932 14.2357 4.80687 14.2357C5.42054 14.2357 5.91798 14.7668 5.91798 15.422C5.91798 16.0772 5.42054 16.6083 4.80687 16.6083ZM4.80687 13.0494C4.1932 13.0494 3.69576 12.5182 3.69576 11.8631C3.69576 11.2079 4.1932 10.6767 4.80687 10.6767C5.42054 10.6767 5.91798 11.2079 5.91798 11.8631C5.91798 12.5182 5.42054 13.0494 4.80687 13.0494ZM7.02909 11.8631C7.02909 12.5182 7.52654 13.0494 8.1402 13.0494C8.75387 13.0494 9.25132 12.5182 9.25132 11.8631C9.25132 11.2079 8.75387 10.6767 8.1402 10.6767C7.52654 10.6767 7.02909 11.2079 7.02909 11.8631ZM4.80687 9.49044C4.1932 9.49044 3.69576 8.95931 3.69576 8.30414C3.69576 7.64896 4.1932 7.11783 4.80687 7.11783C5.42054 7.11783 5.91798 7.64896 5.91798 8.30414C5.91798 8.95931 5.42054 9.49044 4.80687 9.49044ZM7.02909 8.30414C7.02909 8.95931 7.52654 9.49044 8.1402 9.49044C8.75387 9.49044 9.25132 8.95931 9.25132 8.30414C9.25132 7.64896 8.75387 7.11783 8.1402 7.11783C7.52654 7.11783 7.02909 7.64896 7.02909 8.30414ZM8.1402 3.55892V2.66919C8.1402 1.19504 9.25954 0 10.6402 0H17.8624C19.2431 0 20.3624 1.19504 20.3624 2.66919V22.2432C20.3624 22.7346 19.9893 23.1329 19.5291 23.1329H1.19576C0.735538 23.1329 0.362427 22.7346 0.362427 22.2432V6.2281C0.362427 4.75395 1.48176 3.55892 2.86243 3.55892H8.1402ZM18.6958 2.66919C18.6958 2.17781 18.3227 1.77946 17.8624 1.77946H10.6402C10.18 1.77946 9.80687 2.17781 9.80687 2.66919V3.55892H10.0846C11.4653 3.55892 12.5847 4.75395 12.5847 6.2281V21.3535H18.6958V2.66919ZM7.58465 21.3535V19.574H5.36243V21.3535H7.58465ZM3.69576 18.6843C3.69576 18.1929 4.06887 17.7946 4.52909 17.7946H8.41798C8.87821 17.7946 9.25132 18.1929 9.25132 18.6843V21.3535H10.918V6.2281C10.918 5.73672 10.5449 5.33837 10.0846 5.33837H2.86243C2.4022 5.33837 2.02909 5.73672 2.02909 6.2281V21.3535H3.69576V18.6843Z" fill="#F2C21A"/>
</svg>
