<svg width="19" height="16" viewBox="0 0 19 16" fill="none" xmlns="http://www.w3.org/2000/svg">
<path d="M16.8662 9.41622L18.3435 2.91622C18.4501 2.44691 18.0934 2 17.6121 2H5.33768L5.05124 0.599688C4.97986 0.250656 4.67274 0 4.31646 0H1.11243C0.698208 0 0.362427 0.335781 0.362427 0.75V1.25C0.362427 1.66422 0.698208 2 1.11243 2H3.29627L5.49152 12.7323C4.96633 13.0344 4.61243 13.6007 4.61243 14.25C4.61243 15.2165 5.39593 16 6.36243 16C7.32893 16 8.11243 15.2165 8.11243 14.25C8.11243 13.7602 7.91096 13.3177 7.58668 13H14.1381C13.8139 13.3177 13.6124 13.7602 13.6124 14.25C13.6124 15.2165 14.3959 16 15.3624 16C16.3289 16 17.1124 15.2165 17.1124 14.25C17.1124 13.5571 16.7097 12.9584 16.1256 12.6748L16.298 11.9162C16.4046 11.4469 16.0479 11 15.5666 11H7.17858L6.97405 10H16.1348C16.485 10 16.7886 9.75769 16.8662 9.41622Z" fill="#0F3661"/>
</svg>
