<svg width="11" height="10" viewBox="0 0 11 10" fill="none" xmlns="http://www.w3.org/2000/svg">
<path d="M5.3624 0C8.12451 0 10.3624 2.23792 10.3624 5.00003C10.3624 7.76214 8.12451 10.0001 5.3624 10.0001C2.60028 10.0001 0.362366 7.76214 0.362366 5.00003C0.362366 2.23792 2.60028 0 5.3624 0ZM5.3624 9.03231C7.59023 9.03231 9.39468 7.22787 9.39468 5.00003C9.39468 2.77219 7.59023 0.967748 5.3624 0.967748C3.13456 0.967748 1.33011 2.77219 1.33011 5.00003C1.33011 7.22787 3.13456 9.03231 5.3624 9.03231ZM4.11642 6.92746L5.82812 5.6835C5.89063 5.63713 5.92692 5.56455 5.92692 5.48794V2.17743C5.92692 2.04437 5.81804 1.9355 5.68498 1.9355H5.03981C4.90675 1.9355 4.79788 2.04437 4.79788 2.17743V5.03431L3.45109 6.01415C3.34222 6.09278 3.32005 6.24399 3.39867 6.35286L3.77771 6.87504C3.85634 6.9819 4.00755 7.00609 4.11642 6.92746Z" fill="#F2C21A"/>
</svg>
