<svg width="9" height="16" viewBox="0 0 9 16" fill="none" xmlns="http://www.w3.org/2000/svg">
<path d="M5.69575 9.86985V16L2.62536 15.9788L2.52975 9.92297C2.51912 9.63612 2.28539 9.40239 1.98791 9.40239L0.713014 9.42364C0.532403 9.42364 0.394299 9.28552 0.394299 9.10491L0.362427 7.08632C0.362427 6.90571 0.500531 6.7676 0.681141 6.7676L1.95604 6.74635C2.25352 6.73572 2.48725 6.50199 2.47663 6.20451L2.42351 3.28287C2.39163 1.51926 3.79402 0.07438 5.55763 0.0425075L8.42616 0C8.60677 0 8.74489 0.138104 8.74489 0.318715L8.78738 2.86854C8.78738 3.04915 8.64927 3.18725 8.46866 3.18725L5.91886 3.22976C5.73825 3.22976 5.60013 3.37849 5.60013 3.54847L5.64263 6.15139C5.65325 6.43825 5.88698 6.67198 6.18446 6.67198L8.44741 6.64011C8.64927 6.64011 8.79801 6.82072 8.76613 7.01195L8.39429 9.04117C8.36242 9.18991 8.23493 9.29615 8.08619 9.30677L6.21633 9.33864C5.92948 9.33864 5.69575 9.583 5.69575 9.86985Z" fill="white"/>
</svg>
