<svg width="26" height="23" viewBox="0 0 26 23" fill="none" xmlns="http://www.w3.org/2000/svg">
<path d="M16.3624 2H2.36243L2.36243 21H16.3624V16H18.3624V21C18.3624 22.1046 17.467 23 16.3624 23H2.36243C1.25786 23 0.362427 22.1046 0.362427 21V2C0.362427 0.89543 1.25786 0 2.36243 0H16.3624C17.467 0 18.3624 0.895431 18.3624 2V8.5L16.3624 7.5V2Z" fill="#F2C21A"/>
<path fill-rule="evenodd" clip-rule="evenodd" d="M3.36243 6C3.36243 5.44772 3.81014 5 4.36243 5H14.3624C14.9147 5 15.3624 5.44772 15.3624 6C15.3624 6.55228 14.9147 7 14.3624 7H4.36243C3.81014 7 3.36243 6.55228 3.36243 6Z" fill="#F2C21A"/>
<path fill-rule="evenodd" clip-rule="evenodd" d="M3.36243 10C3.36243 9.44771 3.81014 9 4.36243 9H10.8624C11.4147 9 11.8624 9.44771 11.8624 10C11.8624 10.5523 11.4147 11 10.8624 11H4.36243C3.81014 11 3.36243 10.5523 3.36243 10Z" fill="#F2C21A"/>
<path fill-rule="evenodd" clip-rule="evenodd" d="M3.36243 14C3.36243 13.4477 3.81014 13 4.36243 13H9.86243C10.4147 13 10.8624 13.4477 10.8624 14C10.8624 14.5523 10.4147 15 9.86243 15H4.36243C3.81014 15 3.36243 14.5523 3.36243 14Z" fill="#F2C21A"/>
<path fill-rule="evenodd" clip-rule="evenodd" d="M14.8624 16C16.7954 16 18.3624 14.433 18.3624 12.5C18.3624 10.567 16.7954 9 14.8624 9C12.9294 9 11.3624 10.567 11.3624 12.5C11.3624 14.433 12.9294 16 14.8624 16ZM14.8624 18C17.9 18 20.3624 15.5376 20.3624 12.5C20.3624 9.46243 17.9 7 14.8624 7C11.8249 7 9.36243 9.46243 9.36243 12.5C9.36243 15.5376 11.8249 18 14.8624 18Z" fill="#F2C21A"/>
<path fill-rule="evenodd" clip-rule="evenodd" d="M17.6553 15.2929C18.0458 14.9024 18.679 14.9024 19.0695 15.2929L24.7264 20.9498C25.1169 21.3403 25.1169 21.9735 24.7264 22.364C24.3359 22.7545 23.7027 22.7545 23.3122 22.364L17.6553 16.7071C17.2648 16.3166 17.2648 15.6834 17.6553 15.2929Z" fill="#F2C21A"/>
</svg>
