<svg width="26" height="16" viewBox="0 0 26 16" fill="none" xmlns="http://www.w3.org/2000/svg">
<path d="M8.36246 16C3.93846 16 0.362463 12.424 0.362463 7.99998C0.362463 3.57598 3.93846 -2.43113e-05 8.36246 -2.43113e-05C10.5225 -2.43113e-05 12.3225 0.783976 13.7225 2.09598L11.5545 4.18398C10.9625 3.61598 9.93046 2.95198 8.37046 2.95198C5.64246 2.95198 3.41846 5.20798 3.41846 8.00798C3.41846 10.8 5.64246 13.064 8.37046 13.064C11.5385 13.064 12.7225 10.784 12.9145 9.61598H8.36246V6.86398H15.9145C15.9945 7.26398 16.0425 7.67198 16.0425 8.19197C16.0425 12.76 12.9785 16 8.36246 16ZM25.9625 9.45598H23.6425V11.776H21.3065V9.45598H18.9865V7.11998H21.3065V4.79998H23.6425V7.11998H25.9625V9.45598Z" fill="white"/>
</svg>
