<svg width="25" height="26" viewBox="0 0 25 26" fill="none" xmlns="http://www.w3.org/2000/svg">
<path d="M8.13537 0.774583C9.52193 0.262491 11.0047 0 12.5 0C13.9953 0 15.4781 0.262491 16.8646 0.774583C18.2512 1.28669 19.518 2.03978 20.5901 2.99572C21.6625 3.95185 22.52 5.09322 23.1077 6.35809C23.67 7.56851 23.973 8.86647 23.9983 10.1829C24.597 10.5285 25 11.1754 25 11.9164V17.7243C25 18.8289 24.1046 19.7243 23 19.7243H21V17.941H19V11.6996H21V9.91636H21.9865C21.93 8.98672 21.697 8.06864 21.2938 7.20072C20.8261 6.19385 20.1368 5.27107 19.2591 4.4885C18.3812 3.70573 17.333 3.07959 16.1717 2.65072C15.0104 2.22183 13.7625 2 12.5 2C11.2375 2 9.98956 2.22183 8.82828 2.65072C7.66704 3.07959 6.61879 3.70573 5.74089 4.4885C4.8632 5.27108 4.17392 6.19385 3.70618 7.20072C3.30298 8.06864 3.07002 8.98672 3.01353 9.91636H4V11.6996H6V17.941H4V19.7243H3.08656L3.09637 19.761C3.20208 20.1498 3.38078 20.593 3.63071 21.0211C4.14313 21.8989 4.86464 22.5704 5.71747 22.7605C7.49028 23.1557 8.40259 23.3077 11.2889 23.2091C11.6071 22.7215 12.1576 22.3992 12.7833 22.3992H17.2167C18.2016 22.3992 19 23.1976 19 24.1825C19 25.1674 18.2016 25.9657 17.2167 25.9657H12.7833C12.1805 25.9657 11.6477 25.6667 11.3249 25.209C8.31027 25.3102 7.23225 25.1473 5.28235 24.7126C3.68089 24.3557 2.56911 23.1696 1.90348 22.0294C1.56439 21.4485 1.31787 20.8426 1.16646 20.2859C1.09255 20.0141 1.03583 19.734 1.00669 19.4606C0.405199 19.1158 0 18.4674 0 17.7243V11.9164C0 11.1754 0.402969 10.5285 1.00172 10.1829C1.02696 8.86647 1.33004 7.56851 1.89235 6.35809C2.47995 5.09322 3.33753 3.95185 4.40987 2.99572C5.48199 2.03978 6.74877 1.28669 8.13537 0.774583Z" fill="white"/>
</svg>
