<svg width="27" height="24" viewBox="0 0 27 24" fill="none" xmlns="http://www.w3.org/2000/svg">
<path d="M14.6039 2.10289L13.4962 3.19957L12.385 2.1019C9.55186 -0.696857 4.95837 -0.696857 2.12521 2.1019C0.145339 4.05772 -0.450971 6.86274 0.336312 9.33006H2.50262C1.61386 7.42176 1.96524 5.08834 3.55682 3.51612C5.59933 1.4984 8.9109 1.4984 10.9534 3.51612L12.7856 5.32604C13.1876 5.7232 13.8419 5.71545 14.2341 5.3089L16.0356 3.5171C18.0832 1.4943 21.397 1.4943 23.4446 3.5171C25.0372 5.09032 25.3862 7.4191 24.4957 9.33006H26.6624C27.4514 6.862 26.858 4.06048 24.8763 2.10289C22.0379 -0.700963 17.4423 -0.700963 14.6039 2.10289ZM12.7818 22.7642L3.90652 13.9967H6.55594C6.62476 13.9967 6.69311 13.9938 6.76084 13.9881L13.4975 20.643L20.2297 13.9967H23.094L14.2134 22.7642C13.8181 23.1547 13.1771 23.1547 12.7818 22.7642ZM10.0161 5.88286C9.84285 5.54058 9.48706 5.326 9.0997 5.33014C8.71234 5.33428 8.36135 5.55644 8.19564 5.90234L5.91494 10.6634H1.0123C0.453225 10.6634 0 11.1111 0 11.6634C0 12.2157 0.453225 12.6634 1.0123 12.6634H6.55581C6.94715 12.6634 7.30344 12.4406 7.47084 12.0911L9.13571 8.61566L12.5919 15.4439C12.7502 15.7569 13.0625 15.9653 13.4155 15.9935C13.7684 16.0218 14.1106 15.8658 14.3179 15.5822L17.9597 10.601L19.4841 12.3219C19.6763 12.539 19.954 12.6634 20.2459 12.6634H25.9823C26.5413 12.6634 26.9945 12.2157 26.9945 11.6634C26.9945 11.1111 26.5413 10.6634 25.9823 10.6634H20.7052L18.6457 8.3382C18.4427 8.109 18.1448 7.98362 17.8366 7.9978C17.5285 8.01206 17.2438 8.1642 17.0633 8.41126L13.6552 13.0727L10.0161 5.88286Z" fill="white"/>
</svg>
