<svg width="27" height="26" viewBox="0 0 27 26" fill="none" xmlns="http://www.w3.org/2000/svg">
<path d="M13.2593 6.2809C9.6004 6.2809 6.64908 9.23222 6.64908 12.8912C6.64908 16.5501 9.6004 19.5014 13.2593 19.5014C16.9183 19.5014 19.8696 16.5501 19.8696 12.8912C19.8696 9.23222 16.9183 6.2809 13.2593 6.2809ZM13.2593 17.1887C10.8948 17.1887 8.96181 15.2614 8.96181 12.8912C8.96181 10.5209 10.8891 8.59363 13.2593 8.59363C15.6296 8.59363 17.5569 10.5209 17.5569 12.8912C17.5569 15.2614 15.6239 17.1887 13.2593 17.1887ZM21.6818 6.01051C21.6818 6.86771 20.9915 7.55233 20.14 7.55233C19.2828 7.55233 18.5982 6.86196 18.5982 6.01051C18.5982 5.15906 19.2886 4.46869 20.14 4.46869C20.9915 4.46869 21.6818 5.15906 21.6818 6.01051ZM26.0599 7.57534C25.9621 5.50999 25.4904 3.68052 23.9773 2.17322C22.47 0.665916 20.6405 0.194166 18.5752 0.0906107C16.4465 -0.0302036 10.0664 -0.0302036 7.93777 0.0906107C5.87817 0.188413 4.0487 0.660163 2.53565 2.16746C1.02259 3.67477 0.556593 5.50424 0.453037 7.56959C0.332223 9.69822 0.332223 16.0784 0.453037 18.207C0.550839 20.2723 1.02259 22.1018 2.53565 23.6091C4.0487 25.1164 5.87242 25.5882 7.93777 25.6917C10.0664 25.8125 16.4465 25.8125 18.5752 25.6917C20.6405 25.5939 22.47 25.1222 23.9773 23.6091C25.4846 22.1018 25.9564 20.2723 26.0599 18.207C26.1807 16.0784 26.1807 9.70397 26.0599 7.57534ZM23.3099 20.491C22.8612 21.6186 21.9925 22.4873 20.8591 22.9418C19.162 23.6149 15.1348 23.4595 13.2593 23.4595C11.3839 23.4595 7.35096 23.6091 5.65956 22.9418C4.53196 22.493 3.66324 21.6243 3.20875 20.491C2.53565 18.7938 2.69098 14.7667 2.69098 12.8912C2.69098 11.0157 2.5414 6.98278 3.20875 5.29138C3.65749 4.16378 4.5262 3.29506 5.65956 2.84057C7.35671 2.16746 11.3839 2.3228 13.2593 2.3228C15.1348 2.3228 19.1677 2.17322 20.8591 2.84057C21.9867 3.28931 22.8555 4.15802 23.3099 5.29138C23.9831 6.98853 23.8277 11.0157 23.8277 12.8912C23.8277 14.7667 23.9831 18.7996 23.3099 20.491Z" fill="#AEAEC8"/>
</svg>
