<svg width="24" height="25" viewBox="0 0 24 25" fill="none" xmlns="http://www.w3.org/2000/svg">
<path fill-rule="evenodd" clip-rule="evenodd" d="M23.75 11C23.75 10.3275 23.6883 9.65811 23.5667 9C23.427 8.24444 23.2081 7.50377 22.9127 6.79048C22.3599 5.4559 21.5496 4.24327 20.5282 3.22183C19.5067 2.20038 18.2941 1.39013 16.9595 0.837325C16.2462 0.54187 15.5056 0.32305 14.75 0.183346C14.0919 0.0616616 13.4225 0 12.75 0L12.75 11H23.75ZM21.0649 7.55585C21.2591 8.02455 21.4128 8.5077 21.525 9H14.75L14.75 2.22504C15.2423 2.33724 15.7254 2.49094 16.1942 2.68508C17.2861 3.13738 18.2782 3.80031 19.114 4.63604C19.9497 5.47177 20.6126 6.46392 21.0649 7.55585Z" fill="white"/>
<path d="M2 13C2 7.47715 6.47715 3 12 3V1C5.37258 1 0 6.37258 0 13C0 19.6274 5.37258 25 12 25C18.6274 25 24 19.6274 24 13V12H22V13C22 18.5228 17.5228 23 12 23C6.47715 23 2 18.5228 2 13Z" fill="white"/>
</svg>
