<svg width="24" height="23" viewBox="0 0 24 23" fill="none" xmlns="http://www.w3.org/2000/svg">
<path d="M19.7504 18.4304C18.7903 19.5231 17.6111 20.4073 16.2853 21.023C14.6559 21.7798 12.8596 22.1058 11.0682 21.9699C9.27682 21.834 7.55025 21.2408 6.05365 20.2469C4.55706 19.253 3.34051 17.8917 2.52037 16.2933C1.70024 14.6949 1.30394 12.9128 1.3694 11.1174C1.43486 9.32205 1.95988 7.57352 2.89424 6.03906C3.8286 4.5046 5.14105 3.23555 6.70604 2.35329C7.97944 1.63541 9.38538 1.19316 10.8329 1.05055L10.8625 11.5028L10.8639 12.0123L11.277 12.3107L19.7504 18.4304ZM22.3623 11.4387C22.3698 12.73 22.1391 14.0084 21.685 15.2107L14.5952 10.8725L14.5952 1.36179C15.8093 1.68904 16.9579 2.23258 17.9846 2.96943C19.3308 3.93556 20.4292 5.20659 21.1901 6.67859C21.951 8.15058 22.3526 9.78176 22.3623 11.4387Z" stroke="#F2C21A" stroke-width="2"/>
</svg>
