<svg width="17" height="16" viewBox="0 0 17 16" fill="none" xmlns="http://www.w3.org/2000/svg">
<path d="M16.1421 13.833L13.0268 10.7177C12.8862 10.5771 12.6956 10.499 12.4956 10.499H11.9863C12.8487 9.39596 13.3612 8.00859 13.3612 6.49937C13.3612 2.90909 10.4521 0 6.86179 0C3.27152 0 0.362427 2.90909 0.362427 6.49937C0.362427 10.0896 3.27152 12.9987 6.86179 12.9987C8.37102 12.9987 9.75838 12.4863 10.8614 11.6239V12.1332C10.8614 12.3332 10.9395 12.5238 11.0801 12.6644L14.1955 15.7797C14.4892 16.0734 14.9641 16.0734 15.2547 15.7797L16.139 14.8954C16.4327 14.6017 16.4327 14.1267 16.1421 13.833ZM6.86179 10.499C4.65263 10.499 2.86218 8.71165 2.86218 6.49937C2.86218 4.29021 4.64951 2.49976 6.86179 2.49976C9.07095 2.49976 10.8614 4.28708 10.8614 6.49937C10.8614 8.70852 9.07408 10.499 6.86179 10.499Z" fill="#0F3661"/>
</svg>
