<svg width="27" height="26" viewBox="0 0 27 26" fill="none" xmlns="http://www.w3.org/2000/svg">
<path d="M24.8147 15.4187C24.9817 14.6126 25.0853 13.7548 25.0853 12.8969C25.0853 6.36209 19.7941 1.07666 13.2651 1.07666C12.4072 1.07666 11.5551 1.17454 10.7433 1.34727C9.64935 0.500906 8.29057 0 6.81088 0C3.25271 0 0.362427 2.89029 0.362427 6.44845C0.362427 7.92814 0.863333 9.28692 1.70393 10.3751C1.53697 11.1812 1.43333 12.039 1.43333 12.8969C1.43333 19.4317 6.72451 24.7171 13.2536 24.7171C14.1114 24.7171 14.9636 24.6193 15.7754 24.4465C16.8693 25.2871 18.2281 25.788 19.702 25.788C23.2602 25.788 26.1505 22.8978 26.1505 19.3396C26.1562 17.8657 25.6553 16.5069 24.8147 15.4187ZM13.6105 20.6869C9.83359 20.6869 6.6727 19.0057 6.6727 16.9445C6.6727 16.0232 7.19087 15.1826 8.37117 15.1826C10.1675 15.1826 10.3345 17.7678 13.4436 17.7678C14.9233 17.7678 15.879 17.1114 15.879 16.2535C15.879 15.1769 14.9578 15.0099 13.4608 14.6414C9.86237 13.7548 6.67845 13.3748 6.67845 9.62086C6.67845 6.21239 10.0524 4.95149 12.9599 4.95149C16.1323 4.95149 19.3393 6.21239 19.3393 8.14117C19.3393 9.11419 18.6829 9.97207 17.5948 9.97207C15.9654 9.97207 15.9136 8.04329 13.2766 8.04329C11.7969 8.04329 10.8584 8.44632 10.8584 9.33874C10.8584 10.4787 12.056 10.5939 14.8369 11.2387C17.2205 11.7742 20.059 12.7817 20.059 15.7066C20.059 19.1093 16.7714 20.6869 13.6105 20.6869Z" fill="#AEAEC8"/>
</svg>
