<svg width="16" height="15" viewBox="0 0 16 15" fill="none" xmlns="http://www.w3.org/2000/svg">
<path d="M11.6858 15C10.896 15 10.0642 14.8116 9.20446 14.4488C8.36569 14.093 7.51993 13.6047 6.69514 13.0116C5.87734 12.4116 5.0875 11.7419 4.33959 11.0093C3.59868 10.2628 2.92766 9.47442 2.33354 8.66512C1.73242 7.82791 1.25012 6.9907 0.907627 6.1814C0.544161 5.31628 0.362427 4.47907 0.362427 3.6907C0.362427 3.14651 0.460284 2.63023 0.649006 2.14884C0.844719 1.65349 1.15926 1.19302 1.58563 0.795349C2.12384 0.265116 2.73894 0 3.39598 0C3.66858 0 3.94817 0.0627907 4.18582 0.174419C4.45842 0.3 4.68908 0.488372 4.85683 0.739535L6.47846 3.02093C6.62524 3.22326 6.73708 3.41861 6.81396 3.61395C6.90483 3.82326 6.95376 4.03256 6.95376 4.23488C6.95376 4.5 6.87687 4.75814 6.73009 5.00233C6.62524 5.1907 6.46448 5.39302 6.26178 5.59535L5.78647 6.0907C5.79346 6.11163 5.80045 6.12558 5.80744 6.13954C5.89132 6.28605 6.05907 6.53721 6.3806 6.91395C6.7231 7.30465 7.04463 7.66047 7.36616 7.98837C7.77855 8.39302 8.12105 8.71395 8.44258 8.97907C8.84099 9.31395 9.09961 9.4814 9.25339 9.55814L9.23941 9.59302L9.74966 9.0907C9.96634 8.87442 10.176 8.71395 10.3787 8.6093C10.7632 8.37209 11.2525 8.33023 11.7417 8.53256C11.9235 8.6093 12.1192 8.71395 12.3289 8.86047L14.6495 10.507C14.9081 10.6814 15.0968 10.9047 15.2087 11.1698C15.3135 11.4349 15.3624 11.6791 15.3624 11.9233C15.3624 12.2581 15.2855 12.593 15.1388 12.907C14.992 13.2209 14.8102 13.493 14.5796 13.7442C14.1812 14.1837 13.7478 14.4977 13.2445 14.7C12.7622 14.8953 12.238 15 11.6858 15ZM9.23941 9.6L9.12757 10.0744L9.31629 9.58605C9.28135 9.57907 9.25339 9.58605 9.23941 9.6Z" fill="#F2C21A"/>
</svg>
