<svg width="21" height="16" viewBox="0 0 21 16" fill="none" xmlns="http://www.w3.org/2000/svg">
<path d="M18.0374 3.98749C18.0499 4.16248 18.0499 4.33751 18.0499 4.5125C18.0499 9.84997 13.9875 16 6.56243 16C4.27492 16 2.14993 15.3375 0.362427 14.1875C0.687439 14.225 0.999907 14.2375 1.33742 14.2375C3.22489 14.2375 4.96242 13.6 6.34993 12.5125C4.57492 12.475 3.08742 11.3125 2.57491 9.7125C2.82493 9.74997 3.07491 9.77498 3.33744 9.77498C3.69993 9.77498 4.06245 9.72496 4.39993 9.63751C2.54994 9.26247 1.16239 7.63749 1.16239 5.67499V5.62501C1.69987 5.92501 2.32493 6.11251 2.98738 6.13748C1.89988 5.41247 1.1874 4.17498 1.1874 2.77497C1.1874 2.02499 1.38737 1.33749 1.73739 0.737481C3.7249 3.18748 6.71241 4.78745 10.0624 4.96248C9.9999 4.66248 9.96238 4.35001 9.96238 4.03751C9.96238 1.81248 11.7624 0 13.9999 0C15.1624 0 16.2124 0.487499 16.9499 1.275C17.8624 1.10001 18.7374 0.762491 19.5124 0.300002C19.2124 1.23752 18.5749 2.02502 17.7374 2.52499C18.5499 2.43753 19.3374 2.21248 20.0624 1.90001C19.5125 2.69998 18.8249 3.41245 18.0374 3.98749Z" fill="white"/>
</svg>
