<svg width="27" height="23" viewBox="0 0 27 23" fill="none" xmlns="http://www.w3.org/2000/svg">
<path d="M26.1385 5.15067C26.0234 7.66036 24.2735 11.0968 20.8774 15.46C17.3719 20.0188 14.4075 22.2983 11.9784 22.2983C10.476 22.2983 9.20389 20.911 8.16202 18.1366C6.13585 10.6996 5.27243 6.3422 3.59739 6.3422C3.40168 6.3422 2.72821 6.75089 1.57122 7.55675L0.362427 5.99107C3.3326 3.38353 6.17039 0.482428 7.94904 0.321256C9.95794 0.125546 11.1898 1.50127 11.656 4.43691C13.308 14.8843 14.0391 16.4615 17.0438 11.73C18.1202 10.0261 18.7015 8.731 18.7821 7.8388C19.0584 5.19672 16.7214 5.37516 15.1385 6.05439C16.4048 1.9042 18.8282 -0.110456 22.4028 0.00466704C25.0391 0.073741 26.2882 1.79483 26.1385 5.15067Z" fill="#AEAEC8"/>
</svg>
